<?xml version="1.0" standalone="no"?>
<!DOCTYPE svg PUBLIC "-//W3C//DTD SVG 20010904//EN"
 "http://www.w3.org/TR/2001/REC-SVG-20010904/DTD/svg10.dtd">
<svg version="1.0" xmlns="http://www.w3.org/2000/svg"
 width="2766.000000pt" height="2766.000000pt" viewBox="0 0 2766.000000 2766.000000"
 preserveAspectRatio="xMidYMid meet">
<metadata>
Created by potrace 1.14, written by Peter Selinger 2001-2017
</metadata>
<g transform="translate(0.000000,2766.000000) scale(0.100000,-0.100000)"
fill="#000000" stroke="none">
<path d="M17140 27119 c-954 -50 -1797 -438 -2418 -1112 -130 -142 -237 -278
-360 -459 -117 -172 -134 -185 -227 -164 -33 7 -112 28 -175 45 -649 176
-1430 238 -2093 165 -899 -98 -1719 -417 -2322 -900 -144 -116 -393 -360 -514
-504 -171 -204 -344 -459 -455 -671 -31 -59 -50 -82 -90 -109 -100 -68 -443
-329 -561 -425 -349 -286 -821 -741 -1096 -1055 -648 -741 -1156 -1535 -1544
-2410 -730 -1647 -963 -3504 -665 -5310 419 -2536 1892 -4808 4045 -6235 110
-73 265 -172 344 -220 79 -47 177 -115 217 -150 167 -146 288 -207 545 -279
46 -13 160 -58 254 -101 136 -61 516 -217 609 -249 21 -7 22 16 -13 -256 -11
-85 -23 -198 -27 -252 -6 -94 -6 -97 19 -122 36 -36 107 -37 142 -2 29 29 31
36 45 196 27 301 92 680 206 1192 46 211 72 347 68 363 -12 49 -101 93 -129
64 -7 -8 -30 -67 -50 -132 -32 -103 -40 -119 -65 -132 -17 -9 -39 -34 -51 -58
-12 -23 -56 -76 -98 -118 -61 -61 -95 -85 -171 -123 -157 -76 -222 -90 -445
-90 -211 -1 -295 14 -437 74 -135 57 -323 204 -399 312 l-21 28 54 22 c178 73
385 192 555 319 113 85 317 285 388 379 26 36 52 69 56 74 4 5 22 -3 39 -18
58 -48 140 -24 158 47 7 25 29 46 108 102 281 197 554 348 699 386 114 30 268
19 502 -36 12 -3 25 -15 29 -28 12 -38 65 -97 153 -171 150 -125 312 -221 474
-282 40 -15 76 -30 80 -34 5 -4 -11 -14 -35 -22 -223 -76 -577 -216 -596 -236
-21 -20 -23 -29 -17 -70 3 -26 8 -99 11 -162 9 -247 34 -1121 41 -1405 l6
-300 28 -27 c37 -37 96 -39 136 -4 l28 24 -2 269 c-1 147 -10 500 -18 783 -9
283 -15 573 -13 644 l3 129 395 144 395 145 295 2 c274 2 305 4 433 29 336 66
595 196 770 387 37 41 73 87 79 102 17 36 48 43 187 40 187 -4 295 -43 527
-192 165 -105 594 -410 594 -422 0 -5 -11 -30 -24 -56 -61 -121 -69 -223 -24
-318 11 -25 55 -81 96 -125 l75 -80 -87 -242 c-94 -263 -102 -306 -66 -365 37
-61 230 -133 459 -173 63 -10 122 -17 131 -14 34 11 63 56 105 162 l43 108 77
3 c70 3 76 1 71 -15 -2 -10 -10 -38 -16 -63 -20 -77 -88 -195 -141 -245 -27
-25 -78 -59 -112 -76 -195 -91 -419 -52 -750 132 -104 57 -157 73 -184 56 -5
-3 -28 61 -52 143 -52 182 -157 507 -172 536 -22 42 -87 56 -138 29 -55 -28
-54 -60 5 -246 129 -410 221 -745 259 -954 20 -106 50 -145 110 -145 24 0 35
-5 35 -15 0 -20 -3 -20 225 25 1197 241 2322 710 3345 1393 712 476 1381 1075
1944 1741 1146 1356 1887 3029 2116 4776 89 682 104 1424 44 2085 -13 145 -14
189 -3 295 18 176 15 532 -5 715 -95 844 -368 1573 -768 2050 -70 84 -99 130
-181 295 -104 206 -167 321 -279 512 -37 64 -68 121 -68 126 0 5 28 58 62 118
229 404 384 912 428 1404 15 170 12 518 -5 688 -94 902 -497 1797 -1149 2553
-141 164 -424 445 -571 568 -865 720 -1925 1144 -3006 1201 -210 11 -224 11
-439 -1z m485 -199 c1398 -88 2735 -813 3585 -1945 482 -642 785 -1355 886
-2080 22 -158 30 -604 15 -773 -48 -526 -207 -1012 -470 -1437 -74 -121 -214
-305 -304 -401 -114 -123 -123 -143 -92 -203 17 -34 47 -47 145 -61 265 -39
476 -154 705 -384 136 -137 205 -227 313 -404 256 -424 442 -1026 514 -1657
18 -165 15 -582 -6 -735 -43 -318 -119 -579 -240 -825 -280 -571 -718 -934
-1272 -1057 -84 -18 -131 -22 -314 -22 -185 0 -228 3 -312 21 -177 40 -341
108 -494 204 -51 32 -70 39 -113 39 l-53 0 26 31 c38 44 34 82 -15 154 -91
133 -153 296 -164 433 -3 37 -8 82 -11 101 -12 80 -108 109 -166 50 l-31 -30
6 -97 c12 -185 77 -379 179 -534 46 -70 66 -92 98 -106 l39 -17 -97 -80 c-53
-44 -264 -245 -468 -447 l-370 -368 -142 139 c-628 614 -1531 1277 -2652 1948
-1128 674 -2220 1213 -3115 1536 -1496 540 -3344 871 -4570 819 -110 -5 -202
-7 -204 -5 -14 12 94 427 294 1123 59 206 114 398 122 427 14 50 15 52 40 42
69 -26 156 68 122 133 -6 13 -41 57 -77 98 -466 534 -655 1172 -553 1867 96
648 435 1306 941 1827 293 302 583 513 959 702 812 405 1781 559 2792 444 296
-34 631 -99 854 -166 79 -23 149 -38 206 -41 78 -5 92 -3 142 20 75 34 117 79
235 253 143 211 254 347 422 515 510 510 1123 812 1870 919 265 38 517 47 795
30z m-8826 -8397 c-8 -10 -49 -60 -93 -112 -540 -647 -931 -1453 -1106 -2281
-131 -617 -161 -1202 -94 -1838 16 -147 15 -177 -6 -156 -26 26 -104 407 -135
664 -22 175 -30 590 -16 780 72 955 497 1970 1191 2842 l85 107 55 4 c134 9
134 9 119 -10z m1472 -3066 c5 -313 10 -422 23 -492 38 -201 107 -244 311
-196 44 11 154 31 245 45 1150 177 2420 193 3745 45 99 -11 232 -29 296 -39
139 -24 181 -25 219 -5 67 35 92 104 124 353 13 101 26 186 29 188 3 3 15 -39
27 -93 74 -338 131 -486 202 -524 9 -5 157 -39 330 -75 755 -158 1347 -334
1856 -550 139 -59 269 -119 281 -130 2 -2 -4 -13 -15 -25 -17 -18 -20 -44 -26
-198 -7 -195 -19 -292 -78 -616 -59 -327 -81 -494 -68 -519 18 -36 51 -56 95
-56 57 0 89 38 98 117 4 32 22 148 41 258 19 110 44 260 56 333 l22 132 29 0
c15 0 58 18 95 40 124 75 308 118 429 100 96 -14 139 -27 215 -67 188 -98 336
-316 391 -573 28 -135 28 -348 -2 -487 -76 -362 -295 -675 -626 -896 -91 -60
-298 -167 -325 -167 -8 0 -30 15 -50 34 -53 52 -140 101 -272 152 -65 26 -118
49 -118 53 0 3 9 50 20 104 28 137 27 152 -14 193 -28 28 -42 34 -75 34 -61 0
-73 -19 -99 -150 -13 -63 -24 -115 -25 -116 -1 -1 -40 9 -86 22 -171 50 -279
67 -421 68 -152 1 -224 -14 -327 -65 -68 -35 -177 -139 -193 -186 -6 -15 -22
-35 -35 -43 -31 -18 -356 -534 -425 -675 -134 -272 -119 -460 59 -725 l50 -74
-44 -28 c-255 -159 -672 -344 -1010 -448 -776 -240 -1872 -315 -2895 -199
-896 102 -1715 355 -2396 740 -118 67 -123 71 -162 136 -61 105 -116 218 -183
380 -132 320 -214 457 -351 588 -96 93 -194 149 -295 170 -75 16 -166 18 -230
6 l-42 -8 -40 91 c-86 196 -161 447 -192 639 -14 90 -30 115 -79 123 -43 7
-100 -27 -114 -69 -25 -69 65 -436 165 -681 l29 -68 -83 7 c-398 33 -778 227
-1012 518 -211 262 -325 590 -325 938 0 505 259 836 724 924 103 20 336 32
336 18 0 -27 33 -324 51 -463 35 -269 80 -534 95 -557 36 -57 142 -44 169 21
13 30 13 45 0 117 -45 255 -91 613 -120 929 -12 135 -19 170 -35 192 -39 53
-23 70 118 129 324 133 634 241 962 335 296 85 316 95 380 191 66 99 101 173
297 633 185 432 253 583 262 574 3 -3 9 -186 12 -407z m7721 -4229 c93 -46
129 -188 48 -188 -23 0 -37 11 -70 53 -23 28 -57 63 -75 77 -36 26 -48 73 -22
83 19 8 79 -4 119 -25z m-9010 -126 c111 -55 225 -187 316 -367 22 -44 77
-168 122 -275 101 -240 142 -319 268 -513 130 -200 147 -229 184 -328 28 -73
32 -97 32 -184 0 -81 -4 -111 -22 -156 -26 -65 -67 -129 -120 -189 l-37 -42 0
204 c-1 299 -36 463 -151 695 -54 110 -78 146 -138 210 -210 223 -474 263
-958 144 -65 -15 -118 -27 -118 -26 0 1 -10 40 -22 86 -18 69 -22 112 -22 239
-1 140 2 161 23 215 49 123 128 209 249 269 84 42 148 56 243 53 73 -3 96 -8
151 -35z m9112 -108 c17 -17 21 -61 7 -82 -4 -8 -19 -12 -32 -10 -18 2 -26 12
-33 40 -14 57 22 89 58 52z m-8982 -852 c124 -44 211 -131 287 -285 59 -118
118 -328 112 -394 -1 -16 -102 -75 -183 -107 -94 -37 -246 -76 -296 -76 -48 0
-92 -33 -92 -70 0 -29 44 -70 74 -70 81 0 351 77 459 131 l57 29 0 -87 c-1
-176 -45 -299 -142 -388 -172 -159 -521 -235 -745 -161 -205 67 -367 237 -453
475 -70 193 -115 417 -115 576 0 110 2 125 26 170 49 96 163 157 416 221 73
18 174 40 225 48 125 21 294 15 370 -12z m3233 -1031 c218 -24 426 -41 514
-41 110 0 108 1 108 -93 0 -45 4 -106 8 -135 l7 -54 -58 7 c-184 21 -372 74
-533 151 -87 41 -222 125 -281 175 l-25 21 40 -6 c22 -3 121 -14 220 -25z
m1815 -31 c-207 -179 -471 -265 -896 -294 l-72 -5 -10 42 c-17 70 -24 153 -17
196 l7 41 170 0 c190 0 487 15 683 34 72 7 139 14 150 15 15 1 12 -5 -15 -29z
m-4020 -183 c0 -14 -61 -99 -134 -186 -197 -235 -558 -485 -872 -604 l-41 -16
-46 97 c-43 89 -101 242 -94 248 1 1 49 12 105 24 194 39 344 109 455 210 41
37 63 50 85 50 58 0 300 210 377 328 l28 42 68 -92 c38 -51 69 -97 69 -101z
m6100 -355 c86 -45 104 -178 42 -305 -56 -113 -144 -163 -233 -132 -52 19
-122 75 -156 126 -31 47 -28 85 16 174 42 85 77 115 158 136 89 23 131 23 173
1z m600 -109 c33 -31 60 -116 60 -188 0 -105 -38 -240 -112 -394 -82 -172
-169 -238 -276 -211 -135 34 -261 157 -262 257 0 26 7 35 44 57 101 59 194
206 218 345 l13 74 89 43 c113 55 178 60 226 17z"/>
<path d="M10263 22320 c-32 -13 -51 -47 -88 -159 -139 -408 -119 -830 60
-1263 8 -20 -11 -22 -315 -38 -279 -14 -558 -38 -592 -51 -62 -25 -82 -120
-35 -167 l26 -25 198 16 c447 38 536 41 1128 42 505 0 640 -3 850 -19 338 -27
352 -27 376 3 24 30 25 98 1 127 -28 35 -50 41 -182 53 -271 24 -431 32 -819
38 l-404 6 -42 91 c-103 220 -139 391 -139 646 0 207 18 320 76 480 43 117 46
160 16 194 -25 29 -79 42 -115 26z"/>
<path d="M12430 20713 c-44 -39 -52 -102 -19 -135 20 -20 48 -28 164 -47 899
-146 1813 -410 2639 -763 423 -180 791 -365 1211 -607 115 -67 217 -121 225
-121 34 0 79 39 91 78 23 78 1 96 -376 307 -1094 613 -2323 1049 -3599 1274
-276 49 -295 50 -336 14z"/>
<path d="M17110 18912 c-25 -12 -39 -28 -49 -58 -22 -62 -5 -85 135 -184 451
-319 885 -673 1244 -1016 115 -109 135 -124 175 -124 21 0 40 -9 55 -25 34
-36 76 -33 141 12 247 169 531 425 735 663 197 231 374 485 374 538 0 67 -88
115 -150 82 -11 -6 -57 -65 -102 -133 -231 -340 -579 -702 -910 -945 l-56 -41
-104 98 c-409 388 -939 818 -1353 1098 -78 52 -93 56 -135 35z"/>
<path d="M18985 17336 c-36 -36 -42 -73 -19 -115 16 -31 30 -40 89 -60 129
-43 242 -62 416 -68 91 -3 182 -3 201 1 85 16 117 108 59 167 l-29 29 -149 0
c-155 0 -277 15 -400 50 -98 27 -138 26 -168 -4z"/>
<path d="M19287 16969 c-22 -13 -47 -61 -47 -92 0 -12 25 -63 56 -111 80 -127
156 -274 205 -401 23 -60 52 -120 63 -132 33 -35 75 -39 116 -11 55 37 59 65
26 161 -66 194 -263 554 -318 583 -31 16 -76 18 -101 3z"/>
<path d="M11121 14104 c-88 -23 -171 -74 -246 -149 -320 -320 -209 -903 201
-1052 313 -113 646 79 740 427 23 85 23 243 1 330 -56 215 -214 384 -416 444
-68 20 -206 20 -280 0z m-133 -279 c102 -41 94 -190 -12 -225 -71 -23 -156 39
-156 114 0 43 34 94 73 111 41 18 49 18 95 0z"/>
<path d="M14971 14104 c-144 -39 -287 -159 -359 -301 -103 -208 -96 -457 20
-650 76 -128 219 -235 359 -268 191 -45 362 7 510 156 124 123 182 268 182
454 0 187 -57 331 -182 456 -79 80 -151 123 -250 153 -68 20 -206 20 -280 0z
m551 -274 c97 -27 111 -173 22 -221 -35 -18 -97 -16 -130 5 -75 50 -63 175 19
211 39 17 43 17 89 5z"/>
<path d="M12199 12853 c-17 -7 -31 -23 -36 -40 -4 -15 -8 -134 -7 -263 0 -318
27 -467 115 -643 167 -332 536 -537 969 -537 417 0 762 190 915 505 80 163
109 309 127 630 13 234 8 292 -27 333 l-23 27 -1002 0 c-751 0 -1010 -3 -1031
-12z m1671 -136 c0 -52 -91 -92 -290 -129 -158 -29 -525 -31 -675 -4 -183 33
-315 88 -315 129 0 9 163 13 640 16 573 3 640 2 640 -12z m-257 -606 c168 -30
447 -104 447 -118 0 -16 -77 -147 -115 -195 -195 -248 -620 -356 -1000 -254
-177 48 -317 128 -428 245 -63 67 -137 182 -137 213 0 24 296 94 530 124 162
20 551 12 703 -15z"/>
<path d="M13425 8221 c-126 -31 -195 -149 -160 -270 45 -150 234 -201 349 -93
123 115 63 323 -104 361 -25 6 -47 10 -50 10 -3 -1 -18 -4 -35 -8z"/>
<path d="M12615 8114 c-81 -30 -134 -109 -135 -199 0 -135 131 -240 258 -207
168 45 219 260 88 369 -63 52 -136 65 -211 37z"/>
<path d="M13515 7561 c-187 -47 -231 -286 -72 -385 196 -121 412 95 291 291
-44 71 -143 113 -219 94z"/>
<path d="M12705 7454 c-81 -30 -134 -109 -135 -199 0 -135 131 -240 258 -207
203 54 219 337 23 407 -53 18 -93 18 -146 -1z"/>
<path d="M13590 6911 c-80 -25 -130 -75 -151 -151 -33 -125 50 -250 179 -267
140 -19 265 121 231 259 -27 114 -153 191 -259 159z"/>
<path d="M12792 6809 c-71 -21 -142 -122 -142 -200 0 -89 69 -180 157 -205 80
-23 143 -6 204 55 98 97 85 245 -27 324 -46 32 -133 44 -192 26z"/>
<path d="M10118 5575 c-167 -34 -311 -148 -386 -305 -74 -154 -110 -324 -119
-570 -18 -482 113 -888 325 -1003 236 -128 676 -24 895 212 67 73 100 139 105
211 8 104 -25 172 -101 213 -66 34 -202 30 -328 -12 -123 -40 -161 -40 -200
-2 -32 33 -36 58 -14 101 16 30 47 44 127 55 26 3 74 20 108 36 77 39 110 90
110 170 0 126 -90 178 -267 155 -59 -8 -63 -7 -88 19 -24 23 -27 32 -22 68 11
78 60 101 251 117 138 12 181 21 226 52 47 32 70 82 70 148 0 68 -38 139 -102
195 -53 45 -182 109 -263 131 -85 22 -245 27 -327 9z m19 -110 c-198 -54 -305
-188 -377 -471 -27 -107 -30 -113 -25 -56 8 83 48 220 88 302 55 112 166 201
284 229 59 14 84 11 30 -4z m351 -724 c9 -5 -6 -10 -40 -14 -82 -10 -99 -8
-63 8 34 16 84 19 103 6z m189 -488 c-13 -12 -221 -72 -252 -72 -38 -1 118 56
190 68 69 12 69 12 62 4z"/>
<path d="M8116 5561 c-141 -73 -206 -195 -258 -489 -19 -108 -22 -164 -22
-377 -1 -152 4 -285 12 -340 50 -354 117 -521 246 -610 52 -36 64 -40 132 -43
127 -7 218 45 265 151 21 47 24 68 25 209 1 88 7 172 14 192 33 100 157 101
201 2 15 -34 20 -74 23 -192 5 -168 22 -240 75 -317 44 -65 106 -99 190 -105
197 -14 325 114 386 384 39 174 58 389 59 669 1 203 -3 269 -18 349 -23 125
-57 231 -102 316 -47 89 -87 135 -148 170 -43 25 -62 30 -120 30 -87 0 -146
-26 -187 -83 -47 -64 -60 -125 -68 -312 -4 -96 -12 -179 -19 -191 -24 -45 -71
-74 -118 -74 -64 0 -102 23 -125 76 -18 39 -19 57 -13 157 14 227 -34 349
-161 415 -69 36 -211 42 -269 13z m26 -114 c-67 -50 -106 -125 -151 -293 -30
-111 -39 -115 -20 -8 27 153 81 261 153 305 44 27 56 24 18 -4z m845 -29 c-37
-51 -39 -62 -47 -248 -7 -195 -22 -251 -82 -306 l-31 -29 26 36 c45 60 57 111
57 238 0 173 20 261 73 319 30 32 32 27 4 -10z"/>
<path d="M11888 5565 c-165 -60 -373 -315 -543 -660 -184 -376 -269 -674 -270
-946 0 -143 1 -147 30 -205 43 -83 90 -109 200 -109 114 0 173 30 285 148 245
259 242 257 315 218 23 -12 97 -79 166 -149 151 -154 212 -192 310 -192 120 0
177 50 216 190 15 54 18 103 17 285 -1 192 -4 239 -27 370 -98 545 -288 941
-502 1041 -57 27 -138 31 -197 9z m-14 -133 c-107 -78 -226 -230 -371 -472
-35 -58 -63 -102 -63 -97 0 13 77 163 121 235 51 82 154 214 205 263 47 44
123 99 137 99 6 0 -8 -13 -29 -28z m96 -792 c44 -44 13 -154 -51 -180 -27 -11
-34 -11 -57 7 -51 38 -47 120 9 167 37 31 72 33 99 6z m96 -197 c-26 -51 -85
-93 -128 -93 -18 1 -14 6 22 25 25 13 61 39 79 59 42 43 46 44 27 9z"/>
<path d="M13055 5562 c-134 -84 -238 -345 -287 -722 -16 -125 -16 -542 0 -640
49 -291 124 -436 263 -503 255 -125 716 -27 963 204 87 81 116 140 116 234 0
132 -70 208 -217 235 -81 16 -240 8 -342 -15 -71 -17 -74 -17 -100 2 -65 48
-76 132 -60 458 17 370 5 527 -51 641 -42 86 -89 118 -184 122 -56 2 -77 -1
-101 -16z m1 -154 c-40 -64 -96 -203 -128 -318 -32 -116 -35 -69 -3 54 29 117
72 213 121 273 19 24 37 43 40 43 2 0 -11 -24 -30 -52z m769 -1127 c21 -5 -5
-10 -90 -19 -66 -7 -140 -15 -165 -17 -39 -5 -42 -4 -20 6 66 29 208 45 275
30z"/>
<path d="M14661 5565 c-268 -50 -401 -155 -401 -314 0 -121 80 -184 256 -203
153 -16 201 -27 234 -55 27 -23 30 -30 30 -88 0 -35 -10 -150 -22 -257 -29
-263 -32 -624 -5 -713 27 -85 52 -131 105 -187 60 -65 129 -99 209 -106 83 -6
143 12 197 59 54 48 83 114 97 222 12 91 8 160 -24 387 -25 188 -31 564 -9
616 20 48 51 56 222 63 164 7 192 15 237 63 48 51 57 142 22 215 -60 125 -289
240 -574 289 -127 22 -476 28 -574 9z m118 -100 c-193 -27 -333 -76 -383 -136
-33 -39 -34 -26 -1 17 33 43 150 100 240 118 39 8 108 14 155 14 l85 0 -96
-13z"/>
<path d="M16256 5561 c-141 -73 -206 -195 -258 -489 -19 -108 -22 -164 -22
-377 -1 -152 4 -285 12 -340 50 -354 117 -521 246 -610 52 -36 64 -40 132 -43
127 -7 218 45 265 151 21 47 24 68 25 209 1 88 7 172 14 192 33 100 157 101
201 2 15 -34 20 -74 23 -192 5 -168 22 -240 75 -317 44 -65 106 -99 190 -105
197 -14 325 114 386 384 39 174 58 389 59 669 1 203 -3 269 -18 349 -23 125
-57 231 -102 316 -47 89 -87 135 -148 170 -43 25 -62 30 -120 30 -87 0 -146
-26 -187 -83 -47 -64 -60 -125 -68 -312 -4 -96 -12 -179 -19 -191 -24 -45 -71
-74 -118 -74 -64 0 -102 23 -125 76 -18 39 -19 57 -13 157 14 227 -34 349
-161 415 -69 36 -211 42 -269 13z m26 -114 c-67 -50 -106 -125 -151 -293 -30
-111 -39 -115 -20 -8 27 153 81 261 153 305 44 27 56 24 18 -4z m845 -29 c-37
-51 -39 -62 -47 -248 -7 -195 -22 -251 -82 -306 l-31 -29 26 36 c45 60 57 111
57 238 0 173 20 261 73 319 30 32 32 27 4 -10z"/>
<path d="M17855 5564 c-72 -37 -106 -98 -113 -199 -10 -171 81 -368 291 -628
120 -148 124 -166 82 -378 -78 -398 -37 -595 142 -684 52 -26 68 -29 153 -30
110 0 169 21 233 83 90 86 100 136 101 502 1 255 4 301 19 339 17 44 54 97
178 256 130 168 199 330 199 469 0 162 -64 236 -203 236 -119 0 -234 -83 -375
-267 -34 -46 -72 -88 -83 -94 -41 -22 -66 -2 -184 146 -160 202 -244 264 -355
265 -31 0 -68 -7 -85 -16z m53 -95 c-24 -13 -39 -44 -54 -104 l-12 -50 -1 52
c-1 42 4 57 25 82 14 17 33 31 42 31 15 -1 15 -2 0 -11z m992 -44 c0 -2 -17
-13 -37 -24 -43 -21 -141 -121 -226 -227 -50 -65 -121 -124 -133 -112 -2 3 8
11 23 19 14 8 59 57 98 109 89 116 154 180 219 214 51 27 56 29 56 21z"/>
<path d="M11200 3243 c-77 -10 -166 -35 -226 -63 -250 -120 -344 -344 -331
-790 11 -421 134 -822 304 -997 67 -69 119 -92 204 -93 94 0 150 22 202 80 93
103 107 252 43 470 -21 69 -40 148 -43 177 -8 76 7 95 109 127 132 43 178 90
178 184 0 58 -28 106 -80 136 -29 18 -50 20 -128 19 -91 -3 -95 -2 -122 26
-35 35 -45 68 -31 104 18 47 64 58 265 66 148 6 189 11 226 28 94 41 127 121
95 229 -34 116 -190 230 -377 274 -86 20 -227 31 -288 23z m3 -110 c-7 -2 -19
-2 -25 0 -7 3 -2 5 12 5 14 0 19 -2 13 -5z m-93 -22 c-85 -27 -139 -58 -198
-115 -85 -80 -124 -173 -157 -373 l-14 -88 5 80 c7 103 37 232 68 292 29 57
95 125 154 160 47 28 145 62 177 62 11 0 -5 -8 -35 -18z m390 -721 c11 -7 -3
-10 -45 -10 -42 0 -56 3 -45 10 8 5 29 10 45 10 17 0 37 -5 45 -10z"/>
<path d="M12655 3236 c-145 -29 -247 -82 -356 -184 -43 -41 -99 -105 -125
-143 -179 -270 -226 -696 -113 -1034 101 -302 297 -500 554 -561 100 -23 238
-15 328 19 199 77 378 257 498 502 124 255 174 539 134 768 -50 288 -196 480
-437 576 -146 59 -352 83 -483 57z m-50 -134 c-45 -15 -104 -42 -132 -60 -74
-48 -184 -168 -237 -259 -54 -93 -61 -86 -11 11 82 159 205 269 353 317 91 29
115 21 27 -9z m200 -945 c54 -54 59 -128 11 -184 -19 -22 -32 -28 -66 -28 -35
0 -47 6 -70 32 -52 58 -52 133 0 184 40 41 82 39 125 -4z m135 -213 c-23 -46
-67 -86 -110 -99 -18 -6 -13 1 20 26 45 34 98 115 101 154 1 13 4 10 6 -8 3
-16 -5 -47 -17 -73z"/>
<path d="M14375 3236 c-145 -29 -247 -82 -356 -184 -43 -41 -99 -105 -125
-143 -179 -270 -226 -696 -113 -1034 101 -302 297 -500 554 -561 100 -23 238
-15 328 19 199 77 378 257 498 502 124 255 174 539 134 768 -50 288 -196 480
-437 576 -146 59 -352 83 -483 57z m-50 -134 c-45 -15 -104 -42 -132 -60 -74
-48 -184 -168 -237 -259 -54 -93 -61 -86 -11 11 82 159 205 269 353 317 91 29
115 21 27 -9z m200 -945 c54 -54 59 -128 11 -184 -19 -22 -32 -28 -66 -28 -35
0 -47 6 -70 32 -52 58 -52 133 0 184 40 41 82 39 125 -4z m135 -213 c-23 -46
-67 -86 -110 -99 -18 -6 -13 1 20 26 45 34 98 115 101 154 1 13 4 10 6 -8 3
-16 -5 -47 -17 -73z"/>
<path d="M15810 3239 c-159 -32 -278 -267 -342 -674 -18 -118 -22 -182 -22
-415 0 -309 15 -429 74 -591 43 -117 86 -173 162 -209 90 -43 156 -53 288 -47
246 11 518 132 696 311 164 164 223 328 211 584 -7 147 -30 231 -107 387 -88
180 -215 327 -400 464 -186 139 -422 218 -560 190z m-29 -135 c-41 -35 -101
-161 -146 -309 -45 -148 -46 -150 -39 -95 20 143 94 330 158 393 20 20 41 37
47 37 6 0 -3 -12 -20 -26z m376 -856 c79 -86 84 -176 13 -213 -39 -20 -47 -19
-75 10 -22 22 -25 32 -25 105 0 45 5 90 10 101 14 26 52 24 77 -3z m153 -233
c-23 -47 -87 -95 -126 -95 -13 1 -8 7 17 20 45 24 106 91 116 127 5 21 8 23
11 10 2 -9 -6 -38 -18 -62z"/>
</g>
</svg>
